<svg width="40" height="40" viewBox="0 0 40 40" fill="none" xmlns="http://www.w3.org/2000/svg">
<path d="M8.33204 28.3327H28.332C31.1654 28.3327 33.332 26.166 33.332 23.3327V11.666C33.332 8.83268 31.1654 6.66602 28.332 6.66602H8.33204C5.4987 6.66602 3.33204 8.83268 3.33204 11.666V23.3327C3.33204 26.166 5.4987 28.3327 8.33204 28.3327Z" fill="#CCCCCC"/>
<path d="M8.33464 24.9993H15.0013C16.0013 24.9993 16.668 24.3327 16.668 23.3327C16.668 22.3327 16.0013 21.666 15.0013 21.666H8.33464C7.33464 21.666 6.66797 22.3327 6.66797 23.3327C6.66797 24.3327 7.33464 24.9993 8.33464 24.9993Z" fill="#7F7F7F"/>
<path d="M3.33204 11.666H33.332V14.9993H3.33204V11.666Z" fill="white"/>
<path d="M28.3346 36.334L28.8346 36.1673C33.5013 34.834 36.668 30.5007 36.668 25.6673V20.1673L28.3346 16.834L20.0013 20.1673V25.6673C20.0013 30.5007 23.168 34.834 27.8346 36.1673L28.3346 36.334ZM33.3346 22.5007V25.834C33.3346 29.0007 31.3346 31.834 28.3346 33.0007C25.3346 31.834 23.3346 29.0007 23.3346 25.834V22.5007L28.3346 20.5007L33.3346 22.5007Z" fill="#7F7F7F"/>
</svg>
